<svg width="480" height="283" viewBox="0 0 480 283" fill="none" xmlns="http://www.w3.org/2000/svg">
<path d="M149.766 167.406V15.4898C149.766 7.49061 156.274 0.98291 164.273 0.98291H465.493C473.492 0.98291 480 7.49061 480 15.4898V167.406C480 175.405 473.492 181.913 465.493 181.913H164.273C156.274 181.913 149.766 175.405 149.766 167.406ZM478.529 15.4898C478.529 8.29024 472.693 2.45389 465.493 2.45389H164.273C157.074 2.45389 151.237 8.29041 151.237 15.4901V167.406C151.237 174.605 157.074 180.442 164.273 180.442H369.159C429.562 180.442 478.529 131.475 478.529 71.0713V15.4898H478.529Z" fill="#595959"/>
<path d="M255.887 28.6158H87.0679C82.0622 28.6158 77.9917 32.6863 77.9917 37.692V99.7078C77.9917 104.714 82.0622 108.784 87.0679 108.784H255.887C260.893 108.784 264.963 104.714 264.963 99.7078V37.692C264.963 32.6863 260.893 28.6158 255.887 28.6158Z" fill="white"/>
<path d="M255.887 28.6158H87.0679C82.0622 28.6158 77.9917 32.6863 77.9917 37.692V99.7078C77.9917 104.714 82.0622 108.784 87.0679 108.784H255.887C260.893 108.784 264.963 104.714 264.963 99.7078V37.692C264.963 32.6863 260.893 28.6158 255.887 28.6158ZM264.009 99.7078C264.009 104.189 260.368 107.83 255.887 107.83H87.0679C82.5871 107.83 78.9461 104.189 78.9461 99.7078V37.692C78.9461 33.2112 82.5871 29.5702 87.0679 29.5702H255.887C260.368 29.5702 264.009 33.2112 264.009 37.692V99.7078Z" fill="#595959"/>
<path d="M94.9723 56.88H245.012C246.433 56.88 247.586 58.0325 247.586 59.4542C247.586 60.8759 246.433 62.0284 245.012 62.0284H94.9723C93.5506 62.0284 92.3981 60.8759 92.3981 59.4542C92.3981 58.0325 93.5506 56.88 94.9723 56.88Z" fill="#6C63FF"/>
<path d="M94.9723 73.7962H149.398C150.82 73.7962 151.973 74.9487 151.973 76.3704C151.973 77.7921 150.82 78.9446 149.398 78.9446H94.9723C93.5506 78.9446 92.3981 77.7921 92.3981 76.3704C92.3981 74.9487 93.5506 73.7962 94.9723 73.7962Z" fill="#6C63FF"/>
<path d="M422.597 49.0155H319.629C318.007 49.0155 316.687 47.6957 316.687 46.0735C316.687 44.4514 318.007 43.1316 319.629 43.1316H422.597C424.219 43.1316 425.539 44.4514 425.539 46.0735C425.539 47.6957 424.219 49.0155 422.597 49.0155Z" fill="white"/>
<path d="M442.117 112.818H298.638V112.082C345.88 119.327 393.755 118.731 442.117 112.082V112.818Z" fill="white"/>
<path d="M422.597 86.5253H319.629C318.007 86.5253 316.687 85.2055 316.687 83.5834C316.687 81.9612 318.007 80.6414 319.629 80.6414H422.597C424.219 80.6414 425.539 81.9612 425.539 83.5834C425.539 85.2055 424.219 86.5253 422.597 86.5253Z" fill="white"/>
<path d="M442.853 122.379H299.373V123.114H442.853V122.379Z" fill="white"/>
<path d="M422.597 67.1768H319.629C318.007 67.1768 316.687 65.857 316.687 64.2349C316.687 62.6127 318.007 61.2929 319.629 61.2929H422.597C424.219 61.2929 425.539 62.6127 425.539 64.2349C425.539 65.857 424.219 67.1768 422.597 67.1768Z" fill="white"/>
<path d="M442.853 132.676C393.327 129.307 345.23 128.771 299.373 132.676V131.94H442.853V132.676Z" fill="white"/>
<path d="M244.839 120.707L238.786 117.84C241.268 121.305 243.408 126.716 244.553 131.022C246.492 127.011 249.618 122.103 252.712 119.171L246.315 120.817C250.257 101.497 265.084 87.6278 282.063 87.6278V86.1568C264.328 86.1568 248.864 100.607 244.839 120.707Z" fill="#3F3D56"/>
<path d="M272.698 150.144H234.453C232.831 150.144 231.511 148.824 231.511 147.202C231.511 145.58 232.831 144.26 234.453 144.26H272.698C274.32 144.26 275.64 145.58 275.64 147.202C275.64 148.824 274.32 150.144 272.698 150.144Z" fill="#6C63FF"/>
<path d="M174.773 86.2995C180.459 86.2995 185.069 81.6895 185.069 76.0027C185.069 70.3159 180.459 65.7059 174.773 65.7059C169.086 65.7059 164.476 70.3159 164.476 76.0027C164.476 81.6895 169.086 86.2995 174.773 86.2995Z" fill="#6C63FF"/>
<path d="M180.128 69.9733C179.638 69.6863 178.888 69.8351 178.619 70.3691C177.395 72.7937 176.171 75.2183 174.947 77.6429C173.96 76.0963 172.697 74.7458 171.232 73.6139C170.76 73.2493 169.996 73.542 169.722 74.0096C169.389 74.5795 169.645 75.1536 170.118 75.5191C171.827 76.839 173.144 78.6131 174.031 80.571C174.369 81.3153 175.585 81.2683 175.937 80.571C177.466 77.5416 178.995 74.5122 180.524 71.4828C180.793 70.9511 180.665 70.287 180.128 69.9733V69.9733V69.9733Z" fill="white"/>
<path d="M298.335 56.1445C304.021 56.1445 308.631 51.5344 308.631 45.8477C308.631 40.1609 304.021 35.5508 298.335 35.5508C292.648 35.5508 288.038 40.1609 288.038 45.8477C288.038 51.5344 292.648 56.1445 298.335 56.1445Z" fill="#6C63FF"/>
<path d="M303.69 39.8183C303.2 39.5313 302.45 39.6801 302.181 40.2141C300.957 42.6387 299.733 45.0633 298.509 47.4879C297.522 45.9412 296.259 44.5907 294.794 43.4588C294.322 43.0943 293.558 43.387 293.284 43.8546C292.951 44.4245 293.207 44.9986 293.68 45.364C295.389 46.684 296.706 48.458 297.593 50.416C297.93 51.1603 299.146 51.1133 299.498 50.416C301.028 47.3865 302.557 44.3571 304.086 41.3277C304.354 40.7961 304.227 40.132 303.69 39.8183V39.8183V39.8183Z" fill="white"/>
<path d="M446.168 73.0607C451.854 73.0607 456.464 68.4506 456.464 62.7639C456.464 57.0771 451.854 52.467 446.168 52.467C440.481 52.467 435.871 57.0771 435.871 62.7639C435.871 68.4506 440.481 73.0607 446.168 73.0607Z" fill="#6C63FF"/>
<path d="M451.523 56.7345C451.033 56.4475 450.283 56.5963 450.014 57.1303C448.79 59.5549 447.566 61.9795 446.342 64.4041C445.355 62.8574 444.092 61.5069 442.627 60.375C442.155 60.0105 441.391 60.3032 441.117 60.7708C440.784 61.3407 441.04 61.9148 441.513 62.2802C443.222 63.6002 444.539 65.3742 445.426 67.3322C445.763 68.0765 446.979 68.0295 447.331 67.3322C448.861 64.3027 450.39 61.2733 451.919 58.2439C452.187 57.7123 452.06 57.0481 451.523 56.7345V56.7345V56.7345Z" fill="white"/>
<path d="M215.383 127.178H190.582C189.042 127.178 187.789 125.926 187.789 124.386C184.51 114.801 184.575 105.409 187.789 96.1995C187.789 94.6597 189.042 93.4069 190.582 93.4069H215.383C216.923 93.4069 218.176 94.6597 218.176 96.1995V124.386C218.176 125.926 216.923 127.178 215.383 127.178H215.383Z" fill="#595959"/>
<path d="M195.896 94.239C191.878 94.239 188.621 97.4959 188.621 101.514V123.788C188.621 125.201 189.766 126.346 191.18 126.346H204.895C211.77 126.346 217.344 120.773 217.344 113.897V96.7976C217.344 95.3845 216.198 94.239 214.785 94.239H195.896Z" fill="white"/>
<path d="M208.758 102.43H197.147C196.854 102.43 196.616 102.192 196.616 101.899C196.616 101.606 196.854 101.368 197.147 101.368H208.758C209.051 101.368 209.289 101.606 209.289 101.899C209.289 102.192 209.051 102.43 208.758 102.43Z" fill="#ADADAD"/>
<path d="M208.758 113.751H197.147C196.854 113.751 196.616 113.513 196.616 113.22C196.616 112.927 196.854 112.689 197.147 112.689H208.758C209.051 112.689 209.289 112.927 209.289 113.22C209.289 113.513 209.051 113.751 208.758 113.751Z" fill="#ADADAD"/>
<path d="M214.989 108.094H190.916C190.623 108.094 190.385 107.856 190.385 107.563C190.385 107.271 190.623 107.033 190.916 107.033H214.989C215.282 107.033 215.52 107.271 215.52 107.563C215.52 107.856 215.282 108.094 214.989 108.094Z" fill="#ADADAD"/>
<path d="M215.273 118.354H205.228C204.935 118.354 204.697 118.116 204.697 117.823C204.697 117.531 204.935 117.292 205.228 117.292H215.273C215.566 117.292 215.804 117.531 215.804 117.823C215.804 118.116 215.566 118.354 215.273 118.354Z" fill="#ADADAD"/>
<path d="M44.5093 50.0654C45.1626 47.0526 45.3545 49.272 46.7755 46.5392C45.8001 50.0706 47.5999 48.9142 49.9906 51.6832C66.7914 54.3175 67.8501 48.5633 74.0676 48.7397L74.0995 48.7394C75.4676 48.7172 76.1704 47.079 75.3456 45.9873C73.3091 43.2914 71.064 39.1316 73.1887 36.5128C76.9528 31.8734 73.6357 22.3595 72.0134 24.4163C72.0134 16.4826 62.243 11.2797 58.453 12.5688C51.4499 14.9507 44.9646 18.1632 44.1791 25.3513C44.0565 26.4737 43.8978 27.5896 43.6962 28.7005C43.2867 30.9566 41.6002 31.5557 42.1806 33.7713L43.9956 35.6176C44.8474 38.869 44.5783 42.2825 43.4114 45.4347C42.7664 47.1771 42.677 48.671 44.5093 50.0654V50.0654Z" fill="#2F2E41"/>
<path d="M62.0002 39.4195C67.8164 39.4195 72.5313 34.7045 72.5313 28.8884C72.5313 23.0722 67.8164 18.3572 62.0002 18.3572C56.1841 18.3572 51.4691 23.0722 51.4691 28.8884C51.4691 34.7045 56.1841 39.4195 62.0002 39.4195Z" fill="#A0616A"/>
<path d="M45.5952 268.966L51.0186 269.094L54.0416 244.728L46.0381 244.539L45.5952 268.966Z" fill="#A0616A"/>
<path d="M64.2021 280.28C64.2021 281.197 63.5519 281.939 62.7499 281.939H51.985C51.985 281.939 50.9256 277.681 46.6065 275.848L46.3084 281.939H40.7551L41.428 272.145C41.428 272.145 39.9424 266.906 43.0275 264.227C46.1127 261.549 43.6138 261.922 43.6138 261.922L44.8275 255.86L53.219 256.847L53.2807 266.362L57.3531 275.807L63.3262 278.758C63.8578 279.02 64.202 279.619 64.202 280.28L64.2021 280.28H64.2021H64.2021Z" fill="#2F2E41"/>
<path d="M51.5598 246.86L55.8675 250.157L72.6598 232.246L66.303 227.38L51.5598 246.86Z" fill="#A0616A"/>
<path d="M59.9342 266.963C59.3946 267.703 58.4317 267.92 57.7835 267.448L49.0834 261.108C49.0834 261.108 50.7351 257.043 48.3236 253.018L44.4956 257.765L40.0076 254.495L46.3192 246.976C46.3192 246.976 48.2044 241.866 52.2751 241.518C56.3459 241.171 54.1068 240 54.1068 240L58.6575 235.816L64.8583 241.555L59.3043 249.282L57.0333 259.314L60.123 265.216C60.398 265.741 60.3238 266.428 59.9341 266.962L59.9342 266.963H59.9342Z" fill="#2F2E41"/>
<path d="M36.041 144.383C36.368 145.724 35.7657 151.963 36.1024 154.11C36.9587 159.569 44.7822 189.33 43.4326 197.814C38.4876 228.9 45.3268 248.842 45.3268 248.842H56.3591L62.243 154.7L67.9856 162.27L79.2222 195.831L59.3451 231.569L69.7239 240.141L100.713 190.87L78.6921 108.448L77.3618 103.472L47.609 102.642L49.2645 105.122L45.4985 108.843C45.4985 108.843 45.4934 108.853 45.4735 108.873C44.8933 109.684 31.9999 127.823 36.041 144.383V144.383L36.041 144.383Z" fill="#2F2E41"/>
<path d="M45.4735 108.873C48.9194 110.104 72.2055 108.833 78.6922 108.448L77.3618 103.472L47.6091 102.642L49.2645 105.122L45.4985 108.843C45.4985 108.843 45.4935 108.853 45.4735 108.873V108.873H45.4735Z" fill="#A0616A"/>
<path d="M83.9844 69.0203L82.9128 74.7068L82.6529 76.0707L76.9528 87.7705L77.7019 104.922C78.1815 106.93 57.9416 102.374 47.4272 107.081L39.2428 67.9378L47.5416 49.8969L54.0364 46.2887L55.1188 41.9589H68.8769C69.6096 45.3903 68.8153 47.0811 67.3914 48.0542L70.8378 57.2453L83.9844 69.0203V69.0203L83.9844 69.0203Z" fill="#6C63FF"/>
<path d="M94.7457 35.479C94.5754 36.9516 94.0867 38.2636 93.4114 39.2528L92.6753 53.3838L85.9614 52.8368L87.431 38.5612C86.9993 37.444 86.8228 36.0551 86.9931 34.5824C87.3821 31.2183 89.433 28.6918 91.5738 28.9394C93.7146 29.1869 95.1348 32.1148 94.7457 35.4789L94.7457 35.479V35.479Z" fill="#A0616A"/>
<path d="M67.9865 50.3294L68.8624 52.4671C68.8624 52.4671 56.0648 51.1849 56.3381 57.8669C56.5712 63.568 80.6601 86.1622 81.8112 86.6898V86.6898C85.2202 88.2522 89.1824 86.1494 89.7993 82.4505C95.2233 68.4563 96.3474 55.8395 93.869 44.3767H86.5141L84.1191 53.4195L83.9844 60.298L80.1061 68.5711L67.3915 52.4671L67.9865 50.3294V50.3294Z" fill="#6C63FF"/>
<path d="M25.3481 128.875C25.8209 127.434 25.9292 126.006 25.7258 124.798L31.0975 111.356L24.6268 108.987L19.8744 122.877C18.9946 123.73 18.2355 124.945 17.7627 126.386C16.6824 129.677 17.5047 132.903 19.5994 133.59C21.6941 134.278 24.2678 132.167 25.3481 128.875V128.875Z" fill="#A0616A"/>
<path d="M56.3337 50.3367C56.3337 50.3367 48.3885 47.324 43.8781 51.0053C42.0181 52.5235 33.7918 62.9846 32.5247 77.0679C32.4254 78.1717 31.6734 79.1213 31.2498 80.1536C28.6374 86.5199 24.1399 89.4523 22.2275 94.8971C21.4802 97.0248 22.8509 102.528 22.3787 104.363C19.9061 113.976 20.7984 119.456 20.7984 119.456L27.4755 121.679L31.0975 119.119L37.0467 97.3944L56.3337 50.3367L56.3337 50.3367Z" fill="#6C63FF"/>
<path d="M116.092 33.7714H91.2908C89.7509 33.7714 88.4981 32.5186 88.4981 30.9788C85.219 21.3941 85.2837 12.0025 88.4981 2.79262C88.4981 1.25274 89.7509 0 91.2908 0H116.092C117.632 0 118.885 1.25274 118.885 2.79262V30.9788C118.885 32.5186 117.632 33.7714 116.092 33.7714Z" fill="#595959"/>
<path d="M96.6047 0.832031C92.5871 0.832031 89.3302 4.08895 89.3302 8.10656V30.3807C89.3302 31.7938 90.4757 32.9393 91.8888 32.9393H105.604C112.479 32.9393 118.053 27.3657 118.053 20.4904V3.3906C118.053 1.97755 116.907 0.832031 115.494 0.832031H96.6047Z" fill="white"/>
<path d="M109.468 9.02308H97.8558C97.563 9.02308 97.3248 8.78487 97.3248 8.49213C97.3248 8.1994 97.563 7.9613 97.8558 7.9613H109.468C109.76 7.9613 109.998 8.1994 109.998 8.49213C109.998 8.78487 109.76 9.02308 109.468 9.02308Z" fill="#ADADAD"/>
<path d="M109.468 20.3441H97.8558C97.563 20.3441 97.3248 20.1059 97.3248 19.8132C97.3248 19.5204 97.563 19.2823 97.8558 19.2823H109.468C109.76 19.2823 109.998 19.5204 109.998 19.8132C109.998 20.1059 109.76 20.3441 109.468 20.3441Z" fill="#ADADAD"/>
<path d="M115.699 14.6873H91.6248C91.3321 14.6873 91.0939 14.4491 91.0939 14.1564C91.0939 13.8636 91.3321 13.6255 91.6248 13.6255H115.699C115.991 13.6255 116.23 13.8636 116.23 14.1564C116.23 14.4491 115.991 14.6873 115.699 14.6873Z" fill="#ADADAD"/>
<path d="M115.983 24.9472H105.937C105.645 24.9472 105.406 24.709 105.406 24.4163C105.406 24.1235 105.645 23.8854 105.937 23.8854H115.983C116.275 23.8854 116.513 24.1235 116.513 24.4163C116.513 24.709 116.275 24.9472 115.983 24.9472Z" fill="#ADADAD"/>
<path d="M123.232 269.806C124.751 269.902 125.591 268.014 124.442 266.914L124.327 266.459C124.342 266.422 124.357 266.386 124.373 266.35C125.909 262.686 131.117 262.711 132.641 266.38C133.993 269.637 135.714 272.9 136.138 276.343C136.328 277.863 136.243 279.412 135.906 280.904C139.074 273.982 140.742 266.424 140.742 258.824C140.742 256.914 140.637 255.004 140.423 253.1C140.247 251.541 140.005 249.993 139.692 248.458C137.996 240.164 134.324 232.264 129.027 225.666C126.481 224.274 124.357 222.098 123.075 219.49C122.614 218.55 122.253 217.538 122.082 216.507C122.372 216.545 123.175 212.132 122.956 211.861C123.36 211.248 124.083 210.944 124.524 210.346C126.717 207.372 129.739 207.891 131.317 211.932C134.687 213.633 134.72 216.454 132.652 219.167C131.336 220.893 131.155 223.229 130.001 225.077C130.12 225.229 130.243 225.376 130.362 225.528C132.54 228.321 134.423 231.324 136.011 234.478C135.562 230.972 136.225 226.749 137.355 224.027C138.64 220.925 141.05 218.313 143.173 215.631C145.722 212.41 150.949 213.816 151.398 217.899C151.403 217.939 151.407 217.978 151.411 218.018C151.096 218.195 150.787 218.384 150.485 218.584C148.765 219.722 149.359 222.389 151.398 222.704L151.444 222.711C151.33 223.846 151.135 224.972 150.85 226.079C153.573 236.608 147.695 240.443 139.302 240.615C139.117 240.71 138.936 240.805 138.751 240.896C139.601 243.29 140.281 245.746 140.784 248.235C141.236 250.434 141.549 252.658 141.725 254.89C141.943 257.707 141.924 260.539 141.687 263.351L141.701 263.251C142.304 260.154 143.986 257.261 146.428 255.256C150.065 252.268 155.204 251.168 159.128 248.766C161.017 247.61 163.438 249.104 163.108 251.294L163.092 251.399C162.508 251.636 161.938 251.912 161.387 252.221C161.072 252.399 160.763 252.587 160.461 252.787C158.74 253.925 159.335 256.592 161.374 256.907L161.42 256.914C161.453 256.919 161.482 256.924 161.515 256.928C160.513 259.308 159.116 261.517 157.368 263.422C155.666 272.614 148.354 273.486 140.533 270.809H140.528C139.673 274.533 138.423 278.172 136.818 281.64H123.564C123.517 281.493 123.474 281.341 123.431 281.193C124.657 281.27 125.892 281.198 127.098 280.975C126.115 279.768 125.132 278.552 124.148 277.346C124.125 277.322 124.106 277.298 124.087 277.274C123.588 276.657 123.084 276.044 122.585 275.427L122.585 275.426C122.554 273.53 122.781 271.64 123.232 269.807L123.232 269.807V269.806V269.806Z" fill="#A0E69A"/>
<path d="M64.8551 16.4282H62.7111C56.4388 16.4352 45.718 25.3069 49.8664 31.5295C46.324 40.9784 46.1949 45.8946 47.6987 48.4677C48.2522 49.4148 49.3513 49.8463 50.4456 49.7695C50.5915 49.7593 50.7384 49.7561 50.8864 49.761C51.9466 49.7961 53.3687 54.78 54.3556 55.1632L56.9752 54.3669L61.2721 50.0732L59.0918 43.5244L54.8729 40.2236L55.4477 32.5791C52.624 26.0891 55.696 25.7714 57.4249 23.6779L57.5998 30.3944L60.0758 28.0048C62.0926 28.0571 64.4495 28.9315 66.0163 27.1128C68.8625 23.7831 71.8129 27.8033 75.1746 28.6158L76.2174 27.7904C76.253 25.9178 75.976 24.1098 75.4383 22.4908C75.1852 21.7287 74.5383 21.1007 74.5111 20.3431C74.4091 17.5002 69.036 14.7426 64.8551 16.4282H64.8551V16.4282Z" fill="#2F2E41"/>
</svg>
